<?xml version="1.0" encoding="UTF-8" standalone="no"?>
<svg
   xmlns:dc="http://purl.org/dc/elements/1.1/"
   xmlns:cc="http://creativecommons.org/ns#"
   xmlns:rdf="http://www.w3.org/1999/02/22-rdf-syntax-ns#"
   xmlns:svg="http://www.w3.org/2000/svg"
   xmlns="http://www.w3.org/2000/svg"
   xmlns:sodipodi="http://sodipodi.sourceforge.net/DTD/sodipodi-0.dtd"
   xmlns:inkscape="http://www.inkscape.org/namespaces/inkscape"
   version="1.1"
   width="453.12299"
   height="145.91165"
   id="svg2"
   sodipodi:docname="logo_dark.svg"
   inkscape:version="0.92.2 (5c3e80d, 2017-08-06)">
  <sodipodi:namedview
     pagecolor="#ffffff"
     bordercolor="#666666"
     borderopacity="1"
     objecttolerance="10"
     gridtolerance="10"
     guidetolerance="10"
     inkscape:pageopacity="0"
     inkscape:pageshadow="2"
     inkscape:window-width="1920"
     inkscape:window-height="1017"
     id="namedview28"
     showgrid="false"
     inkscape:zoom="1.8819672"
     inkscape:cx="217.96906"
     inkscape:cy="105.74395"
     inkscape:window-x="1912"
     inkscape:window-y="-8"
     inkscape:window-maximized="1"
     inkscape:current-layer="svg2"
     showguides="true"
     inkscape:guide-bbox="true" />
  <metadata
     id="metadata4">
    <rdf:RDF>
      <cc:Work
         rdf:about="">
        <dc:format>image/svg+xml</dc:format>
        <dc:type
           rdf:resource="http://purl.org/dc/dcmitype/StillImage" />
        <dc:title></dc:title>
      </cc:Work>
    </rdf:RDF>
  </metadata>
  <defs
     id="defs6">
    <clipPath
       id="clipPath8">
      <path
         d="M 76,2 V 48 H 54 V 71 H 35.580737 c -0.07818,0.665694 -0.141485,1.332869 -0.205737,2 -1.151162,12.530963 1.036422,24.087546 6.0625,33.96875 L 43.125,110 c 1.011403,1.81678 2.191241,3.52297 3.4375,5.1875 1.244725,1.66248 1.685716,2.58262 2.46875,3.6875 C 62.319911,133.81083 82.129473,141 105,141 155.64836,141 198.63299,118.56201 217.65625,68.15625 231.15302,69.54122 244.09968,66.080358 250,54.5625 240.60137,49.138835 228.52163,50.877226 221.5625,54.375 L 240,2 168,48 H 145 V 2 Z"
         id="path10"
         inkscape:connector-curvature="0" />
    </clipPath>
    <clipPath
       id="clipPath8-5">
      <path
         inkscape:connector-curvature="0"
         d="M 76,2 V 48 H 54 V 71 H 35.580737 c -0.07818,0.665694 -0.141485,1.332869 -0.205737,2 -1.151162,12.530963 1.036422,24.087546 6.0625,33.96875 L 43.125,110 c 1.011403,1.81678 2.191241,3.52297 3.4375,5.1875 1.244725,1.66248 1.685716,2.58262 2.46875,3.6875 C 62.319911,133.81083 82.129473,141 105,141 155.64836,141 198.63299,118.56201 217.65625,68.15625 231.15302,69.54122 244.09968,66.080358 250,54.5625 240.60137,49.138835 228.52163,50.877226 221.5625,54.375 L 240,2 168,48 H 145 V 2 Z"
         id="path10-9" />
    </clipPath>
    <clipPath
       id="clipPath4536">
      <path
         inkscape:connector-curvature="0"
         d="M 76,2 V 48 H 54 V 71 H 35.580737 c -0.07818,0.665694 -0.141485,1.332869 -0.205737,2 -1.151162,12.530963 1.036422,24.087546 6.0625,33.96875 L 43.125,110 c 1.011403,1.81678 2.191241,3.52297 3.4375,5.1875 1.244725,1.66248 1.685716,2.58262 2.46875,3.6875 C 62.319911,133.81083 82.129473,141 105,141 155.64836,141 198.63299,118.56201 217.65625,68.15625 231.15302,69.54122 244.09968,66.080358 250,54.5625 240.60137,49.138835 228.52163,50.877226 221.5625,54.375 L 240,2 168,48 H 145 V 2 Z"
         id="path4534" />
    </clipPath>
    <clipPath
       id="clipPath4540">
      <path
         inkscape:connector-curvature="0"
         d="M 76,2 V 48 H 54 V 71 H 35.580737 c -0.07818,0.665694 -0.141485,1.332869 -0.205737,2 -1.151162,12.530963 1.036422,24.087546 6.0625,33.96875 L 43.125,110 c 1.011403,1.81678 2.191241,3.52297 3.4375,5.1875 1.244725,1.66248 1.685716,2.58262 2.46875,3.6875 C 62.319911,133.81083 82.129473,141 105,141 155.64836,141 198.63299,118.56201 217.65625,68.15625 231.15302,69.54122 244.09968,66.080358 250,54.5625 240.60137,49.138835 228.52163,50.877226 221.5625,54.375 L 240,2 168,48 H 145 V 2 Z"
         id="path4538" />
    </clipPath>
    <clipPath
       id="clipPath4544">
      <path
         inkscape:connector-curvature="0"
         d="M 76,2 V 48 H 54 V 71 H 35.580737 c -0.07818,0.665694 -0.141485,1.332869 -0.205737,2 -1.151162,12.530963 1.036422,24.087546 6.0625,33.96875 L 43.125,110 c 1.011403,1.81678 2.191241,3.52297 3.4375,5.1875 1.244725,1.66248 1.685716,2.58262 2.46875,3.6875 C 62.319911,133.81083 82.129473,141 105,141 155.64836,141 198.63299,118.56201 217.65625,68.15625 231.15302,69.54122 244.09968,66.080358 250,54.5625 240.60137,49.138835 228.52163,50.877226 221.5625,54.375 L 240,2 168,48 H 145 V 2 Z"
         id="path4542" />
    </clipPath>
    <clipPath
       id="clipPath4548">
      <path
         inkscape:connector-curvature="0"
         d="M 76,2 V 48 H 54 V 71 H 35.580737 c -0.07818,0.665694 -0.141485,1.332869 -0.205737,2 -1.151162,12.530963 1.036422,24.087546 6.0625,33.96875 L 43.125,110 c 1.011403,1.81678 2.191241,3.52297 3.4375,5.1875 1.244725,1.66248 1.685716,2.58262 2.46875,3.6875 C 62.319911,133.81083 82.129473,141 105,141 155.64836,141 198.63299,118.56201 217.65625,68.15625 231.15302,69.54122 244.09968,66.080358 250,54.5625 240.60137,49.138835 228.52163,50.877226 221.5625,54.375 L 240,2 168,48 H 145 V 2 Z"
         id="path4546" />
    </clipPath>
    <clipPath
       id="clipPath8-5-9">
      <path
         inkscape:connector-curvature="0"
         d="M 76,2 V 48 H 54 V 71 H 35.580737 c -0.07818,0.665694 -0.141485,1.332869 -0.205737,2 -1.151162,12.530963 1.036422,24.087546 6.0625,33.96875 L 43.125,110 c 1.011403,1.81678 2.191241,3.52297 3.4375,5.1875 1.244725,1.66248 1.685716,2.58262 2.46875,3.6875 C 62.319911,133.81083 82.129473,141 105,141 155.64836,141 198.63299,118.56201 217.65625,68.15625 231.15302,69.54122 244.09968,66.080358 250,54.5625 240.60137,49.138835 228.52163,50.877226 221.5625,54.375 L 240,2 168,48 H 145 V 2 Z"
         id="path10-9-1" />
    </clipPath>
  </defs>
  <g
     id="g5318">
    <path
       id="path24-1"
       d="M 123.85938,3.8105469 V 23.628906 h 19.8164 V 3.8105469 Z m 1.65234,1.6503906 h 1.56055 V 21.976562 h -1.56055 z m 2.97266,0 h 1.56054 V 21.976562 h -1.56054 z m 3.00195,0 h 1.56055 V 21.976562 h -1.56055 z m 3.0039,0 h 1.5586 V 21.976562 h -1.5586 z m 3.00196,0 h 1.56054 V 21.976562 h -1.56054 z m 2.9707,0 h 1.56055 V 21.976562 h -1.56055 z"
       style="fill:#ff6600;fill-opacity:1"
       inkscape:connector-curvature="0" />
    <path
       id="path4837"
       d="M 55.261719,49.542969 V 69.359375 H 75.078125 V 49.542969 Z m 1.652343,1.65039 h 1.560547 v 16.515625 h -1.560547 z m 2.972657,0 h 1.558593 v 16.515625 h -1.558593 z m 3.001953,0 h 1.558594 v 16.515625 h -1.558594 z m 3.001953,0 h 1.560547 v 16.515625 h -1.560547 z m 3.003906,0 h 1.560547 v 16.515625 h -1.560547 z m 2.970703,0 h 1.560547 v 16.515625 h -1.560547 z"
       style="fill:#00acd3"
       inkscape:connector-curvature="0" />
    <path
       id="path4771"
       d="m 78.126953,26.675781 v 19.81836 h 19.818359 v -19.81836 z m 1.654297,1.650391 h 1.558594 V 44.841797 H 79.78125 Z m 2.970703,0 H 84.3125 v 16.515625 h -1.560547 z m 3.001953,0 h 1.560547 v 16.515625 h -1.560547 z m 3.003906,0 h 1.560547 v 16.515625 h -1.560547 z m 3.001954,0 h 1.560546 v 16.515625 h -1.560546 z m 2.972656,0 h 1.558594 v 16.515625 h -1.558594 z"
       style="fill:#00acd3"
       inkscape:connector-curvature="0" />
    <path
       id="path4773"
       d="M 78.126953,49.542969 V 69.359375 H 97.945312 V 49.542969 Z m 1.654297,1.65039 h 1.558594 V 67.708984 H 79.78125 Z m 2.970703,0 H 84.3125 v 16.515625 h -1.560547 z m 3.001953,0 h 1.560547 v 16.515625 h -1.560547 z m 3.003906,0 h 1.560547 v 16.515625 h -1.560547 z m 3.001954,0 h 1.560546 v 16.515625 h -1.560546 z m 2.972656,0 h 1.558594 v 16.515625 h -1.558594 z"
       style="fill:#20c2ef"
       inkscape:connector-curvature="0" />
    <path
       id="path4817"
       d="m 100.99219,49.542969 v 19.816406 h 19.81836 V 49.542969 Z m 1.65429,1.65039 h 1.56055 v 16.515625 h -1.56055 z m 2.97266,0 h 1.55859 v 16.515625 h -1.55859 z m 3,0 h 1.56055 v 16.515625 h -1.56055 z m 3.00391,0 h 1.56054 v 16.515625 h -1.56054 z m 3.0039,0 h 1.5586 v 16.515625 h -1.5586 z m 2.97071,0 h 1.56054 v 16.515625 h -1.56054 z"
       style="fill:#00acd3"
       inkscape:connector-curvature="0" />
    <path
       id="path4819"
       d="m 100.99219,26.675781 v 19.81836 h 19.81836 v -19.81836 z m 1.65429,1.652344 h 1.56055 V 44.84375 h -1.56055 z m 2.97266,0 h 1.55859 V 44.84375 h -1.55859 z m 3,0 h 1.56055 V 44.84375 h -1.56055 z m 3.00391,0 h 1.56054 V 44.84375 h -1.56054 z m 3.0039,0 h 1.5586 V 44.84375 h -1.5586 z m 2.97071,0 h 1.56054 V 44.84375 h -1.56054 z"
       style="fill:#20c2ef"
       inkscape:connector-curvature="0" />
    <path
       id="path4757"
       d="m 123.85938,26.675781 v 19.81836 h 19.8164 v -19.81836 z m 1.65234,1.650391 h 1.56055 v 16.515625 h -1.56055 z m 2.97266,0 h 1.56054 v 16.515625 h -1.56054 z m 3.00195,0 h 1.56055 v 16.515625 h -1.56055 z m 3.0039,0 h 1.5586 v 16.515625 h -1.5586 z m 3.00196,0 h 1.56054 v 16.515625 h -1.56054 z m 2.9707,0 h 1.56055 v 16.515625 h -1.56055 z"
       style="fill:#00acd3"
       inkscape:connector-curvature="0" />
    <path
       id="path4759"
       d="m 123.85938,49.542969 v 19.816406 h 19.8164 V 49.542969 Z m 1.65234,1.65039 h 1.56055 v 16.515625 h -1.56055 z m 2.97266,0 h 1.56054 v 16.515625 h -1.56054 z m 3.00195,0 h 1.56055 v 16.515625 h -1.56055 z m 3.0039,0 h 1.5586 v 16.515625 h -1.5586 z m 3.00196,0 h 1.56054 v 16.515625 h -1.56054 z m 2.9707,0 h 1.56055 v 16.515625 h -1.56055 z"
       style="fill:#20c2ef"
       inkscape:connector-curvature="0" />
    <path
       id="path4827"
       d="m 146.72461,49.542969 v 19.816406 h 19.81836 V 49.542969 Z m 1.6543,1.65039 h 1.55859 v 16.515625 h -1.55859 z m 2.9707,0 h 1.56055 v 16.515625 h -1.56055 z m 3.00195,0 h 1.56055 v 16.515625 h -1.56055 z m 3.00391,0 h 1.56055 v 16.515625 h -1.56055 z m 3.00391,0 h 1.55859 v 16.515625 h -1.55859 z m 2.9707,0 h 1.56054 v 16.515625 h -1.56054 z"
       style="fill:#00acd3"
       inkscape:connector-curvature="0" />
    <path
       style="fill:#ff6600;fill-opacity:1"
       id="path38-0"
       clip-path="url(#clipPath8-5)"
       d="m 221.57014,54.379649 c 1.53332,-11.915247 -7.38383,-21.274779 -12.91407,-25.71836 -6.37269,7.367765 -7.36295,26.677556 2.63498,34.807431 -5.57952,4.956117 -17.33731,9.448435 -29.37574,9.448435 L 34,72.917155 C 32.829255,85.484184 34,146 34,146 h 217 l -0.98657,-91.424 c -9.39863,-5.423665 -21.48419,-3.694326 -28.44332,-0.196552"
       inkscape:connector-curvature="0"
       transform="translate(0,-4.6e-4)" />
    <path
       style="fill-opacity:0.17000002"
       id="path40-5"
       clip-path="url(#clipPath8-5)"
       d="m 34,89 v 57 H 251 V 89"
       inkscape:connector-curvature="0"
       transform="translate(0,-4.6e-4)" />
    <path
       style="fill:#d4edf1"
       id="path42-6"
       clip-path="url(#clipPath8-5)"
       d="M 111.23736,140.88997 C 97.697741,134.4648 90.265707,125.73081 86.130611,116.19562 L 45,118 l 21,28 45.23736,-5.11003"
       inkscape:connector-curvature="0"
       transform="translate(0,-4.6e-4)" />
    <path
       style="fill-opacity:0.08500001"
       id="path44-7"
       clip-path="url(#clipPath8-5)"
       d="m 222.5,53.9375 v 0.03125 c -20.86119,26.889144 -50.78312,50.37872 -82.90625,62.71875 -28.65478,11.00767 -53.638381,11.06039 -70.875,2.21875 -1.85607,-1.04832 -3.675701,-2.21152 -5.5,-3.3125 C 50.582097,106.76175 43.464274,92.152308 44.0625,72.90625 H 34 V 146 H 251 V 50 h -25 z"
       inkscape:connector-curvature="0"
       transform="translate(0,-4.6e-4)" />
    <path
       style="fill:#d4edf1"
       id="path48-7"
       d="m 102.17024,106.95879 c 0,3.01898 -2.44753,5.46651 -5.46651,5.46651 -3.01951,0 -5.46758,-2.44753 -5.46758,-5.46651 0,-3.01897 2.44807,-5.46758 5.46758,-5.46758 3.01898,0 5.46651,2.44861 5.46651,5.46758 z"
       inkscape:connector-curvature="0" />
    <path
       style="fill:#394d54"
       id="path50-0"
       d="m 98.12137,103.30731 c -0.47718,0.27582 -0.80013,0.79264 -0.80013,1.3839 0,0.88261 0.71552,1.59706 1.59813,1.59706 0.60465,0 1.13004,-0.3358 1.40157,-0.83174 0.19173,0.4622 0.29831,0.96991 0.29831,1.50226 0,2.16208 -1.7529,3.91498 -3.91552,3.91498 -2.16207,0 -3.91605,-1.7529 -3.91605,-3.91498 0,-2.16314 1.75398,-3.91658 3.91605,-3.91658 0.50022,0 0.97741,0.0943 1.41764,0.2651 z"
       inkscape:connector-curvature="0" />
    <path
       style="fill:#d4edf1;fill-opacity:1"
       id="path52-3"
       d="m 0,90.16188 h 254.32743 c -5.53774,-1.40478 -17.521,-3.30229 -15.54477,-10.55973 -10.06915,11.65175 -34.35274,8.17433 -40.4812,2.42879 -6.82471,9.89831 -46.55451,6.13596 -49.32553,-1.5751 -8.55565,10.04077 -35.06718,10.04077 -43.62336,0 -2.77209,7.71106 -42.50135,11.47341 -49.32659,1.5751 C 49.89751,87.77648 25.61607,91.2539 15.54584,79.60215 17.52208,86.85959 5.53881,88.7571 0,90.16188"
       inkscape:connector-curvature="0" />
  </g>
  <path
     style="opacity:1;fill:#d4edf1;fill-opacity:1;fill-rule:evenodd;stroke:none;stroke-width:6"
     d="m 339.1641,56.772978 c -1.632,4.43e-4 -3.0131,0.548081 -4.1446,1.642578 -1.1318,1.0947 -1.7096,2.476604 -1.6972,4.146484 l 0.1875,25.445312 c 0,0.538061 0.011,1.07138 0.035,1.59961 2e-4,0.005 -2e-4,0.009 0,0.01367 0.3566,7.98433 3.3882,14.793658 9.0938,20.429688 5.7056,5.70561 12.5198,8.73716 20.4433,9.09375 0.5286,0.0242 1.0615,0.0352 1.5996,0.0352 0.5381,0 1.0709,-0.0109 1.5996,-0.0352 7.9234,-0.35659 14.7378,-3.38815 20.4434,-9.09375 5.7056,-5.63603 8.7352,-12.445358 9.0918,-20.429688 2e-4,-0.005 -2e-4,-0.009 0,-0.01367 0.024,-0.52823 0.041,-1.061549 0.037,-1.59961 L 395.666,62.56204 c -0.012,-1.66988 -0.5673,-3.051784 -1.6992,-4.146484 -1.1318,-1.09494 -2.5137,-1.642579 -4.1465,-1.642578 -1.67,0 -3.0518,0.547818 -4.1465,1.642578 -1.0949,1.0947 -1.6426,2.476554 -1.6426,4.146484 l 0.1876,25.445312 c 0,1.335961 -0.1278,2.633555 -0.3829,3.890626 0,0.0191 -0.01,0.03569 -0.014,0.05469 -0.1155,0.5629 -0.2595,1.117916 -0.4258,1.666016 -0.2003,0.65439 -0.4334,1.297967 -0.707,1.929687 -1.0204,2.35645 -2.4131,4.425751 -4.1758,6.207029 -1.7626,1.78122 -3.8321,3.19146 -6.2071,4.23047 -2.375,1.03903 -4.916,1.55859 -7.625,1.55859 -2.709,0 -5.2519,-0.51957 -7.6269,-1.55859 -2.375,-1.03902 -4.4424,-2.44925 -6.2051,-4.23047 -1.7627,-1.781278 -3.1553,-3.850579 -4.1758,-6.207029 -0.2736,-0.63171 -0.5087,-1.275297 -0.709,-1.929687 -0.1663,-0.5481 -0.3102,-1.103116 -0.4257,-1.666016 0,-0.019 -0.012,-0.03569 -0.016,-0.05469 -0.1274,-0.62791 -0.2233,-1.266473 -0.2871,-1.914063 v -0.0039 c -0.064,-0.64826 -0.096,-1.30663 -0.096,-1.97461 L 344.9531,62.56204 c 0,-1.66993 -0.5457,-3.051784 -1.6406,-4.146484 -1.0943,-1.094325 -2.4775,-1.642143 -4.1465,-1.642578 z m -43.41605,0.07617 c -8.6094,0 -15.95699,3.042927 -22.04297,9.128907 -6.08598,6.08598 -9.12891,13.433568 -9.12891,22.042968 0,8.6094 3.04293,15.956987 9.12891,22.042967 6.08598,6.08592 13.43357,9.12891 22.04297,9.12891 7.3848,0 13.89645,-2.28127 19.53711,-6.8457 v 27.77539 c 0,1.66993 0.54769,3.05178 1.64257,4.14648 1.09476,1.09476 2.47657,1.64258 4.14649,1.64258 1.63284,0 3.01464,-0.54764 4.14648,-1.64258 1.1318,-1.0947 1.6992,-2.47655 1.6992,-4.14648 V 88.021024 c 0,-8.68362 -3.0429,-16.031208 -9.12888,-22.042968 -6.1602,-6.08598 -13.50779,-9.128907 -22.04297,-9.128907 z m 132.04495,0 c -3.043,0 -6.0772,0.436494 -9.1016,1.308594 -3.0244,0.87204 -5.7422,2.105472 -8.1543,3.701172 -2.4121,1.5957 -4.37,3.534176 -5.873,5.816406 -1.5029,2.28227 -2.2539,4.833947 -2.2539,7.654297 0,3.85939 1.41,7.218732 4.2304,10.076172 h -0.053 c 1.4102,1.41012 3.8593,2.783181 7.3476,4.119141 l 25.9942,8.572265 c 1.002,0.40824 1.5039,1.130842 1.5039,2.169925 0,0.89064 -0.2791,1.6523 -0.8359,2.2832 -3.2285,3.33984 -7.4962,5.00977 -12.8028,5.00977 -5.4552,0 -10.0742,-1.89258 -13.8594,-5.67774 -0.7051,-0.66798 -1.4842,-1.36423 -2.3378,-2.087889 -0.8535,-0.72366 -1.8926,-1.085938 -3.1172,-1.085938 -1.6699,0 -3.0538,0.547878 -4.1485,1.642577 -1.0949,1.09476 -1.6406,2.47651 -1.6406,4.14649 0,1.3359 0.4082,2.54298 1.2246,3.61914 6.5684,7.38481 14.5273,11.07617 23.8789,11.07617 3.0429,0 6.0683,-0.4258 9.0742,-1.2793 3.0058,-0.85356 5.7149,-2.08882 8.127,-3.70312 2.4121,-1.61424 4.3682,-3.55273 5.8711,-5.81641 1.503,-2.26368 2.2558,-4.8242 2.2558,-7.68164 0,-3.85944 -1.412,-7.216779 -4.2324,-10.074219 h 0.055 c -1.2617,-1.33596 -3.7109,-2.708961 -7.3476,-4.119141 l -26.0508,-8.572265 c -0.9649,-0.3711 -1.4473,-1.076155 -1.4473,-2.115235 0,-1.03902 0.2966,-1.855219 0.8906,-2.449219 3.1913,-3.26562 7.459,-4.898437 12.8028,-4.898437 5.418,0 10.0195,1.892574 13.8047,5.677734 0.7793,0.77934 1.5869,1.501942 2.4218,2.169922 0.8351,0.66774 1.8456,1.001953 3.0332,1.001953 1.6699,0 3.0518,-0.547818 4.1465,-1.642578 1.0949,-1.09471 1.6426,-2.476564 1.6426,-4.146484 0,-1.37305 -0.3887,-2.54106 -1.168,-3.50586 -6.6426,-7.45902 -14.6034,-11.189453 -23.8808,-11.189453 z M 295.74805,68.483915 c 2.709,0 5.24996,0.519574 7.625,1.558594 2.37498,1.03902 4.44435,2.449249 6.20703,4.230469 1.76268,1.781279 3.15335,3.848638 4.17383,6.205078 1.02054,2.35644 1.53125,4.871048 1.53125,7.542968 0,2.67185 -0.51047,5.186529 -1.53125,7.542969 -1.02048,2.35644 -2.41115,4.425811 -4.17383,6.207027 -1.76268,1.78128 -3.83205,3.19139 -6.20703,4.23047 -2.37504,1.03908 -4.916,1.5586 -7.625,1.5586 -2.74608,0 -5.30666,-0.51959 -7.68164,-1.5586 -2.37504,-1.03908 -4.43555,-2.44044 -6.17969,-4.20312 -1.74414,-1.76268 -3.12601,-3.832053 -4.14649,-6.207033 -1.02054,-2.37504 -1.53125,-4.898453 -1.53125,-7.570313 0,-2.67192 0.51047,-5.195332 1.53125,-7.570312 1.02048,-2.37504 2.40235,-4.444351 4.14649,-6.207031 1.74414,-1.76274 3.80465,-3.162152 6.17969,-4.201172 2.37498,-1.03908 4.93556,-1.558594 7.68164,-1.558594 z"
     id="path5631"
     inkscape:connector-curvature="0" />
</svg>
