<?xml version="1.0" encoding="UTF-8" standalone="no"?>
<svg
   xmlns:dc="http://purl.org/dc/elements/1.1/"
   xmlns:cc="http://creativecommons.org/ns#"
   xmlns:rdf="http://www.w3.org/1999/02/22-rdf-syntax-ns#"
   xmlns:svg="http://www.w3.org/2000/svg"
   xmlns="http://www.w3.org/2000/svg"
   xmlns:sodipodi="http://sodipodi.sourceforge.net/DTD/sodipodi-0.dtd"
   xmlns:inkscape="http://www.inkscape.org/namespaces/inkscape"
   version="1.1"
   width="707.00006"
   height="156.31882"
   id="svg2"
   sodipodi:docname="logo_docs_dark.svg"
   inkscape:version="0.92.2 (5c3e80d, 2017-08-06)">
  <sodipodi:namedview
     pagecolor="#ffffff"
     bordercolor="#666666"
     borderopacity="1"
     objecttolerance="10"
     gridtolerance="10"
     guidetolerance="10"
     inkscape:pageopacity="0"
     inkscape:pageshadow="2"
     inkscape:window-width="1920"
     inkscape:window-height="1017"
     id="namedview28"
     showgrid="false"
     inkscape:zoom="0.66537589"
     inkscape:cx="149.71488"
     inkscape:cy="90.788424"
     inkscape:window-x="-8"
     inkscape:window-y="-8"
     inkscape:window-maximized="1"
     inkscape:current-layer="svg2"
     showguides="true"
     inkscape:guide-bbox="true" />
  <metadata
     id="metadata4">
    <rdf:RDF>
      <cc:Work
         rdf:about="">
        <dc:format>image/svg+xml</dc:format>
        <dc:type
           rdf:resource="http://purl.org/dc/dcmitype/StillImage" />
        <dc:title></dc:title>
      </cc:Work>
    </rdf:RDF>
  </metadata>
  <defs
     id="defs6">
    <clipPath
       id="clipPath8">
      <path
         d="M 76,2 V 48 H 54 V 71 H 35.580737 c -0.07818,0.665694 -0.141485,1.332869 -0.205737,2 -1.151162,12.530963 1.036422,24.087546 6.0625,33.96875 L 43.125,110 c 1.011403,1.81678 2.191241,3.52297 3.4375,5.1875 1.244725,1.66248 1.685716,2.58262 2.46875,3.6875 C 62.319911,133.81083 82.129473,141 105,141 155.64836,141 198.63299,118.56201 217.65625,68.15625 231.15302,69.54122 244.09968,66.080358 250,54.5625 240.60137,49.138835 228.52163,50.877226 221.5625,54.375 L 240,2 168,48 H 145 V 2 Z"
         id="path10"
         inkscape:connector-curvature="0" />
    </clipPath>
    <clipPath
       id="clipPath8-5">
      <path
         inkscape:connector-curvature="0"
         d="M 76,2 V 48 H 54 V 71 H 35.580737 c -0.07818,0.665694 -0.141485,1.332869 -0.205737,2 -1.151162,12.530963 1.036422,24.087546 6.0625,33.96875 L 43.125,110 c 1.011403,1.81678 2.191241,3.52297 3.4375,5.1875 1.244725,1.66248 1.685716,2.58262 2.46875,3.6875 C 62.319911,133.81083 82.129473,141 105,141 155.64836,141 198.63299,118.56201 217.65625,68.15625 231.15302,69.54122 244.09968,66.080358 250,54.5625 240.60137,49.138835 228.52163,50.877226 221.5625,54.375 L 240,2 168,48 H 145 V 2 Z"
         id="path10-9" />
    </clipPath>
    <clipPath
       id="clipPath4536">
      <path
         inkscape:connector-curvature="0"
         d="M 76,2 V 48 H 54 V 71 H 35.580737 c -0.07818,0.665694 -0.141485,1.332869 -0.205737,2 -1.151162,12.530963 1.036422,24.087546 6.0625,33.96875 L 43.125,110 c 1.011403,1.81678 2.191241,3.52297 3.4375,5.1875 1.244725,1.66248 1.685716,2.58262 2.46875,3.6875 C 62.319911,133.81083 82.129473,141 105,141 155.64836,141 198.63299,118.56201 217.65625,68.15625 231.15302,69.54122 244.09968,66.080358 250,54.5625 240.60137,49.138835 228.52163,50.877226 221.5625,54.375 L 240,2 168,48 H 145 V 2 Z"
         id="path4534" />
    </clipPath>
    <clipPath
       id="clipPath4540">
      <path
         inkscape:connector-curvature="0"
         d="M 76,2 V 48 H 54 V 71 H 35.580737 c -0.07818,0.665694 -0.141485,1.332869 -0.205737,2 -1.151162,12.530963 1.036422,24.087546 6.0625,33.96875 L 43.125,110 c 1.011403,1.81678 2.191241,3.52297 3.4375,5.1875 1.244725,1.66248 1.685716,2.58262 2.46875,3.6875 C 62.319911,133.81083 82.129473,141 105,141 155.64836,141 198.63299,118.56201 217.65625,68.15625 231.15302,69.54122 244.09968,66.080358 250,54.5625 240.60137,49.138835 228.52163,50.877226 221.5625,54.375 L 240,2 168,48 H 145 V 2 Z"
         id="path4538" />
    </clipPath>
    <clipPath
       id="clipPath4544">
      <path
         inkscape:connector-curvature="0"
         d="M 76,2 V 48 H 54 V 71 H 35.580737 c -0.07818,0.665694 -0.141485,1.332869 -0.205737,2 -1.151162,12.530963 1.036422,24.087546 6.0625,33.96875 L 43.125,110 c 1.011403,1.81678 2.191241,3.52297 3.4375,5.1875 1.244725,1.66248 1.685716,2.58262 2.46875,3.6875 C 62.319911,133.81083 82.129473,141 105,141 155.64836,141 198.63299,118.56201 217.65625,68.15625 231.15302,69.54122 244.09968,66.080358 250,54.5625 240.60137,49.138835 228.52163,50.877226 221.5625,54.375 L 240,2 168,48 H 145 V 2 Z"
         id="path4542" />
    </clipPath>
    <clipPath
       id="clipPath4548">
      <path
         inkscape:connector-curvature="0"
         d="M 76,2 V 48 H 54 V 71 H 35.580737 c -0.07818,0.665694 -0.141485,1.332869 -0.205737,2 -1.151162,12.530963 1.036422,24.087546 6.0625,33.96875 L 43.125,110 c 1.011403,1.81678 2.191241,3.52297 3.4375,5.1875 1.244725,1.66248 1.685716,2.58262 2.46875,3.6875 C 62.319911,133.81083 82.129473,141 105,141 155.64836,141 198.63299,118.56201 217.65625,68.15625 231.15302,69.54122 244.09968,66.080358 250,54.5625 240.60137,49.138835 228.52163,50.877226 221.5625,54.375 L 240,2 168,48 H 145 V 2 Z"
         id="path4546" />
    </clipPath>
    <clipPath
       id="clipPath8-5-9">
      <path
         inkscape:connector-curvature="0"
         d="M 76,2 V 48 H 54 V 71 H 35.580737 c -0.07818,0.665694 -0.141485,1.332869 -0.205737,2 -1.151162,12.530963 1.036422,24.087546 6.0625,33.96875 L 43.125,110 c 1.011403,1.81678 2.191241,3.52297 3.4375,5.1875 1.244725,1.66248 1.685716,2.58262 2.46875,3.6875 C 62.319911,133.81083 82.129473,141 105,141 155.64836,141 198.63299,118.56201 217.65625,68.15625 231.15302,69.54122 244.09968,66.080358 250,54.5625 240.60137,49.138835 228.52163,50.877226 221.5625,54.375 L 240,2 168,48 H 145 V 2 Z"
         id="path10-9-1" />
    </clipPath>
  </defs>
  <path
     d="m 509.16332,100.82814 c 0,-2.67185 -0.51,-5.18604 -1.53078,-7.54248 -1.02048,-2.35644 -2.41212,-4.4253 -4.1748,-6.20652 -1.76268,-1.78128 -3.83154,-3.1914 -6.20652,-4.23048 -2.37504,-1.03908 -4.917,-1.55862 -7.626,-1.55862 -2.74608,0 -5.30664,0.51961 -7.68162,1.55862 -2.37504,1.03908 -4.4346,2.43996 -6.17874,4.20264 -1.74414,1.76268 -3.12648,3.83154 -4.14696,6.20652 -1.02054,2.37504 -1.53078,4.89846 -1.53078,7.57032 0,2.67192 0.51,5.19534 1.53078,7.57032 1.02048,2.37504 2.40282,4.44384 4.14696,6.20652 1.74414,1.76274 3.8037,3.16362 6.17874,4.20264 2.37498,1.03908 4.93554,1.55862 7.68162,1.55862 2.709,0 5.25096,-0.5196 7.626,-1.55862 2.37498,-1.03902 4.44384,-2.4492 6.20652,-4.23042 1.76268,-1.78128 3.15432,-3.85014 4.1748,-6.20658 1.02054,-2.35644 1.53078,-4.87056 1.53078,-7.54248 z m -19.5381,-31.17185 c 7.3848,0 13.89744,2.28222 19.5381,6.84665 V 48.72661 c 0,-1.66993 0.5472,-3.05226 1.64208,-4.14696 1.09476,-1.09476 2.47704,-1.64214 4.14696,-1.64214 1.63284,0 3.01512,0.5472 4.14696,1.64214 1.13184,1.0947 1.69776,2.47703 1.69776,4.14696 v 52.10154 c 0,8.68362 -3.0429,16.03122 -9.12888,22.04298 -6.1602,6.08598 -13.5078,9.12888 -22.04298,9.12888 -8.6094,0 -15.957,-3.0429 -22.04298,-9.12888 -6.08598,-6.08598 -9.12888,-13.43358 -9.12888,-22.04298 0,-8.6094 3.0429,-15.957 9.12888,-22.04298 6.08598,-6.08592 13.43358,-9.12888 22.04298,-9.12888 z m 100.14186,31.17185 c 0,8.68362 -3.0429,16.03123 -9.12888,22.04298 C 574.478,128.9571 567.1304,132 558.59522,132 c -8.6094,0 -15.957,-3.0429 -22.04298,-9.12888 -6.08598,-6.08598 -9.12888,-13.43358 -9.12888,-22.04298 0,-8.6094 3.0429,-15.957 9.12888,-22.04298 6.08598,-6.08592 13.43358,-9.12887 22.04298,-9.12887 8.53518,0 15.88278,3.04295 22.04298,9.12887 3.04296,3.04303 5.31588,6.4014 6.81882,10.0752 1.50294,3.67387 2.27298,7.66309 2.31006,11.96778 z m -31.17186,-19.5381 c -2.74608,0 -5.30664,0.51961 -7.68162,1.55862 -2.37504,1.03908 -4.4346,2.43996 -6.17874,4.20264 -1.74414,1.76268 -3.12642,3.83154 -4.14696,6.20652 -1.02054,2.37504 -1.53078,4.89846 -1.53078,7.57032 0,2.67192 0.51,5.19534 1.53078,7.57032 1.02054,2.37504 2.40282,4.44384 4.14696,6.20652 1.74414,1.76274 3.8037,3.16362 6.17874,4.20264 2.37498,1.03908 4.93554,1.55862 7.68162,1.55862 2.709,0 5.25096,-0.5196 7.626,-1.55862 2.37498,-1.03902 4.44384,-2.4492 6.20652,-4.23042 1.76268,-1.78128 3.15426,-3.85014 4.1748,-6.20658 1.02054,-2.35644 1.53078,-4.87056 1.53078,-7.54248 0,-2.67186 -0.51,-5.18604 -1.53078,-7.54248 -1.02054,-2.35644 -2.41212,-4.4253 -4.1748,-6.20652 -1.76268,-1.78128 -3.83154,-3.1914 -6.20652,-4.23048 -2.37504,-1.03908 -4.917,-1.55862 -7.626,-1.55862 z m 85.22388,33.0645 c 1.66998,0 3.05226,0.5472 4.14702,1.64208 1.0947,1.09471 1.64208,2.47704 1.64208,4.14697 0,1.63283 -0.6123,3.0615 -1.8369,4.28616 -5.75202,5.0469 -12.5244,7.57026 -20.31744,7.57026 -8.6094,0 -15.957,-3.0429 -22.04292,-9.12888 -6.08598,-6.08598 -9.12894,-13.43358 -9.12894,-22.04298 0,-8.6094 3.04296,-15.957 9.12894,-22.04298 6.08592,-6.08592 13.43352,-9.12888 22.04292,-9.12888 7.83012,0 14.60256,2.52342 20.31744,7.57032 1.3359,1.18752 2.00388,2.65332 2.00388,4.39746 0,1.66992 -0.5472,3.0615 -1.64208,4.1748 -1.09476,1.1133 -2.47704,1.66992 -4.14696,1.66992 -1.41018,0 -2.67192,-0.4452 -3.78516,-1.33596 -1.89258,-1.5957 -3.87792,-2.80176 -5.95608,-3.61812 -2.07816,-0.81642 -4.34178,-1.22466 -6.79104,-1.22466 -2.70894,0 -5.25096,0.51 -7.62594,1.53078 -2.37504,1.02054 -4.45314,2.41212 -6.23436,4.1748 -1.78128,1.76274 -3.18216,3.83154 -4.20264,6.20658 -1.02054,2.37498 -1.53078,4.91694 -1.53078,7.62594 0,2.709 0.51,5.25096 1.53078,7.626 1.02048,2.37498 2.42136,4.44384 4.20264,6.20652 1.78122,1.76273 3.85932,3.15432 6.23436,4.1748 2.37498,1.02054 4.917,1.53078 7.62594,1.53078 2.44926,0 4.71288,-0.399 6.79104,-1.19676 2.07816,-0.79788 4.0449,-1.99464 5.9004,-3.59034 1.03908,-0.77934 2.26368,-1.18752 3.6738,-1.22461 z m 23.99346,-12.02345 c -3.48828,-1.33596 -5.93748,-2.70901 -7.34766,-4.11913 h 0.054 c -2.82036,-2.85744 -4.23048,-6.21581 -4.23048,-10.0752 0,-2.82035 0.75144,-5.37156 2.25438,-7.65383 1.50294,-2.28223 3.46044,-4.22119 5.87256,-5.81689 2.41212,-1.5957 5.13036,-2.8296 8.15478,-3.70164 3.02442,-0.8721 6.05808,-1.30811 9.1011,-1.30811 9.27738,0 17.23728,3.72947 23.87988,11.18849 0.77928,0.9648 1.16892,2.13378 1.16892,3.50683 0,1.66992 -0.5472,3.05225 -1.64208,4.14696 -1.0947,1.09476 -2.47704,1.64208 -4.14696,1.64208 -1.18752,0 -2.1987,-0.3342 -3.03372,-1.00194 -0.83496,-0.66798 -1.64208,-1.39158 -2.42136,-2.17092 -3.78516,-3.78516 -8.38668,-5.67775 -13.80468,-5.67775 -5.34378,0 -9.61134,1.63284 -12.80274,4.89846 -0.594,0.594 -0.89064,1.41018 -0.89064,2.4492 0,1.03908 0.4824,1.74414 1.44726,2.11524 l 26.0508,8.57226 c 3.63672,1.41018 6.08592,2.78322 7.34766,4.11918 h -0.054 c 2.82036,2.85744 4.23048,6.21576 4.23048,10.0752 0,2.85744 -0.75144,5.41794 -2.25438,7.68162 -1.50294,2.26368 -3.46044,4.20264 -5.87256,5.81688 -2.41212,1.6143 -5.12112,2.84814 -8.12694,3.7017 -3.00588,0.8535 -6.0303,1.28023 -9.07326,1.28023 -9.3516,0 -17.3115,-3.69234 -23.87988,-11.07715 -0.81642,-1.07616 -1.2246,-2.28222 -1.2246,-3.61812 0,-1.66998 0.5472,-3.05226 1.64208,-4.14702 1.0947,-1.0947 2.47704,-1.64208 4.14696,-1.64208 1.2246,0 2.26368,0.3618 3.11718,1.08546 0.85356,0.72366 1.63284,1.41942 2.3379,2.0874 3.78516,3.78516 8.40522,5.67774 13.86036,5.67774 5.30664,0 9.5742,-1.66992 12.80274,-5.00976 0.5568,-0.6309 0.83496,-1.39158 0.83496,-2.28222 0,-1.03908 -0.501,-1.76268 -1.50294,-2.17092 z"
     id="path4975"
     inkscape:connector-curvature="0"
     style="opacity:0.7;fill:#d4edf1;fill-opacity:1;fill-rule:evenodd;stroke:none;stroke-width:6" />
  <path
     style="fill:#d4edf1;fill-opacity:1;fill-rule:evenodd;stroke:none;stroke-width:6"
     d="M 117.96165,25.2789 H 95.697451 v 21.0657 h 22.264199 z m -26.312279,0 h -22.2642 v 21.0657 h 22.2642 z m -26.31228,0 h -22.2642 v 21.0657 h 22.2642 z m -26.31222,25.27885 h -22.26426 v 21.06576 h 22.26426 z m 26.31222,0 h -22.2642 v 21.06576 h 22.2642 z m 26.31228,0 h -22.2642 v 21.06576 h 22.2642 z m 26.312279,0 H 95.697451 v 21.06576 h 22.264199 z m 26.31228,0 h -22.26426 v 21.06576 h 22.26426 z"
     id="Shape"
     inkscape:connector-curvature="0"
     sodipodi:nodetypes="cccccccccccccccccccccccccccccccccccccccc" />
  <path
     style="fill:#ff6600;fill-opacity:1;fill-rule:evenodd;stroke:none;stroke-width:6"
     d="m 211.26897,59.40535 c -4.85766,-3.3705 -15.98976,-4.63446 -24.69306,-2.94918 -1.01196,-8.42628 -5.66724,-15.79926 -13.76334,-22.32967 l -4.65522,-3.3705 -3.23844,4.84512 c -4.04802,6.31968 -6.07206,15.16728 -5.46486,23.59356 0.2022,2.94924 1.2144,8.21568 4.25046,12.85014 -2.83362,1.68522 -8.7033,3.79182 -16.39458,3.79182 H 0.9732861 l -0.405,1.68522 c -1.41683,8.42628 -1.41683,34.75848 15.1801199,54.98154 12.54894,15.378 31.16994,23.1723 55.660562,23.1723 53.029382,0 92.295362,-25.4895 110.713922,-71.62344 7.28652,0.2106 22.87146,0 30.76512,-15.79932 0.2022,-0.4212 0.6072,-1.2639 2.02404,-4.4238 l 0.80958,-1.68522 z"
     id="Shape-4"
     inkscape:connector-curvature="0"
     sodipodi:nodetypes="cccccccscccsccccc" />
  <path
     sodipodi:nodetypes="ccccc"
     inkscape:connector-curvature="0"
     id="path5572"
     d="M 117.96165,0 H 95.697451 v 21.06576 h 22.264199 z"
     style="fill:#ff6600;fill-opacity:1;fill-rule:evenodd;stroke:none;stroke-width:6" />
  <path
     style="opacity:1;fill:#d4edf1;fill-opacity:1;fill-rule:evenodd;stroke:none;stroke-width:6"
     d="m 313.04318,67.18012 c -1.63284,0 -3.01465,0.54764 -4.14649,1.64258 -1.13184,1.0947 -1.70959,2.4766 -1.69726,4.14648 l 0.18945,25.44336 c 0.004,0.53806 0.0114,1.07138 0.0351,1.59961 2.1e-4,0.005 -1.9e-4,0.009 0,0.0137 0.35659,7.98433 3.38815,14.79366 9.09376,20.42969 5.7056,5.70561 12.51991,8.73716 20.44335,9.09375 0.52867,0.0242 1.06151,0.0352 1.59961,0.0352 0.53811,0 1.07095,-0.0109 1.59961,-0.0352 7.92345,-0.35659 14.73776,-3.38815 20.44336,-9.09375 5.70561,-5.63603 8.73521,-12.44536 9.0918,-20.42969 2e-4,-0.005 -2e-4,-0.009 0,-0.0137 0.0238,-0.52823 0.0411,-1.06155 0.0371,-1.59961 l -0.1875,-25.44336 c -0.0123,-1.66988 -0.56738,-3.05178 -1.69922,-4.14648 -1.13184,-1.09494 -2.51365,-1.64258 -4.14648,-1.64258 -1.66992,0 -3.05173,0.54782 -4.14649,1.64258 -1.09488,1.0947 -1.64258,2.47655 -1.64258,4.14648 l 0.1875,25.44336 c 0,1.33596 -0.12768,2.63356 -0.38281,3.89063 -0.004,0.0191 -0.01,0.0376 -0.0137,0.0566 -0.11546,0.5629 -0.25944,1.11791 -0.42578,1.66601 -0.20025,0.65439 -0.43345,1.29797 -0.70703,1.92969 -1.02048,2.35645 -2.41311,4.42575 -4.17578,6.20703 -1.76268,1.78122 -3.83206,3.19146 -6.20704,4.23047 -2.37504,1.03903 -4.916,1.5586 -7.625,1.5586 -2.709,0 -5.25191,-0.51958 -7.62695,-1.5586 -2.37498,-1.03902 -4.4424,-2.44925 -6.20508,-4.23047 -1.76268,-1.78128 -3.1553,-3.85058 -4.17578,-6.20703 -0.27359,-0.63171 -0.50874,-1.2753 -0.70898,-1.92969 -0.16634,-0.5481 -0.31032,-1.10311 -0.42578,-1.66601 -0.004,-0.019 -0.01,-0.0376 -0.0137,-0.0566 -0.12743,-0.62791 -0.22333,-1.26647 -0.28711,-1.91406 v -0.002 c -0.0638,-0.64826 -0.0957,-1.30663 -0.0957,-1.97461 l -0.18945,-25.44336 c 0,-1.66993 -0.54575,-3.05178 -1.64063,-4.14648 -1.09476,-1.09476 -2.47851,-1.64258 -4.14843,-1.64258 z m -43.41797,0.0762 c -8.6094,0 -15.95699,3.04293 -22.04297,9.12891 -6.08598,6.08598 -9.12891,13.43357 -9.12891,22.04297 0,8.6094 3.04293,15.95699 9.12891,22.04297 6.08598,6.08592 13.43357,9.1289 22.04297,9.1289 7.3848,0 13.8984,-2.28322 19.53906,-6.84765 v 27.77734 c 0,1.66993 0.5477,3.05178 1.64258,4.14648 1.09476,1.09476 2.47656,1.64258 4.14648,1.64258 1.63284,0 3.01465,-0.54764 4.14649,-1.64258 1.13184,-1.09469 1.69726,-2.47655 1.69726,-4.14648 V 98.4282 c 0,-8.68362 -3.04292,-16.03121 -9.1289,-22.04297 -6.1602,-6.08598 -13.50779,-9.12891 -22.04297,-9.12891 z m 132.04687,0 c -3.04302,0 -6.07714,0.4365 -9.10156,1.3086 -3.02442,0.87204 -5.74218,2.10547 -8.1543,3.70117 -2.41212,1.5957 -4.3701,3.53417 -5.87304,5.81641 -1.50294,2.28227 -2.25391,4.83394 -2.25391,7.65429 0,3.85939 1.41011,7.21678 4.23047,10.07422 h -0.0547 c 1.41018,1.41012 3.85938,2.78318 7.34766,4.11914 l 25.99609,8.57227 c 1.00194,0.40824 1.50195,1.13279 1.50195,2.17187 0,0.89064 -0.27718,1.65035 -0.83398,2.28125 -3.22854,3.33984 -7.49609,5.00977 -12.80274,5.00977 -5.45513,0 -10.07616,-1.89258 -13.86132,-5.67774 -0.70506,-0.66798 -1.48433,-1.36227 -2.33789,-2.08593 -0.8535,-0.72366 -1.89259,-1.08594 -3.11719,-1.08594 -1.66992,0 -3.05179,0.54788 -4.14649,1.64258 -1.09488,1.09476 -1.64257,2.4765 -1.64257,4.14648 0,1.3359 0.40819,2.54103 1.22461,3.61719 6.56838,7.38481 14.52925,11.07812 23.88085,11.07812 3.04296,0 6.06639,-0.42775 9.07227,-1.28125 3.00582,-0.85356 5.71483,-2.08687 8.12695,-3.70117 2.41212,-1.61424 4.37011,-3.55272 5.87305,-5.81641 1.50294,-2.26368 2.25391,-4.8242 2.25391,-7.68164 0,-3.85944 -1.41011,-7.21873 -4.23047,-10.07617 h 0.0547 c -1.26174,-1.33596 -3.71094,-2.70896 -7.34766,-4.11914 l -26.05078,-8.57226 c -0.96486,-0.3711 -1.44727,-1.07616 -1.44727,-2.11524 0,-1.03902 0.29663,-1.85522 0.89063,-2.44922 3.1914,-3.26562 7.45895,-4.89843 12.80273,-4.89843 5.418,0 10.01953,1.89257 13.80469,5.67773 0.77928,0.77934 1.58691,1.50389 2.42187,2.17187 0.83502,0.66774 1.84569,1.00196 3.03321,1.00196 1.66992,0 3.05178,-0.54782 4.14648,-1.64258 1.09488,-1.09471 1.64258,-2.47656 1.64258,-4.14648 0,-1.37305 -0.39064,-2.54302 -1.16992,-3.50782 -6.6426,-7.45902 -14.60153,-11.1875 -23.87891,-11.1875 z M 269.62521,78.88914 c 2.709,0 5.25191,0.51957 7.62695,1.55859 2.37498,1.03902 4.44435,2.44925 6.20703,4.23047 1.76268,1.78128 3.15335,3.85059 4.17383,6.20703 1.02054,2.35644 1.53125,4.87105 1.53125,7.54297 0,2.67185 -0.51047,5.18653 -1.53125,7.54297 -1.02048,2.35644 -2.41115,4.42386 -4.17383,6.20507 -1.76268,1.78129 -3.83205,3.19139 -6.20703,4.23047 -2.37504,1.03908 -4.91795,1.5586 -7.62695,1.5586 -2.74608,0 -5.30666,-0.51959 -7.68164,-1.5586 -2.37504,-1.03908 -4.4336,-2.43849 -6.17774,-4.20117 -1.74414,-1.76268 -3.126,-3.83205 -4.14648,-6.20703 -1.02054,-2.37504 -1.53125,-4.89845 -1.53125,-7.57031 0,-2.67192 0.51047,-5.19533 1.53125,-7.57031 1.02048,-2.37504 2.40234,-4.44436 4.14648,-6.20704 1.74414,-1.76274 3.8027,-3.1641 6.17774,-4.20312 2.37498,-1.03908 4.93556,-1.55859 7.68164,-1.55859 z"
     id="path5604"
     inkscape:connector-curvature="0" />
</svg>
